<svg xmlns="http://www.w3.org/2000/svg" width="105.664" height="31.043"><g><g><path d="M 0 0 L 20.879 0 L 20.879 20.8 L 0 20.8 Z" fill="rgb(250,250,250)"></path><path d="M 0.803 0.8 L 20.076 0.8 L 20.076 20 L 0.803 20 Z" fill="rgb(223,0,50)"></path><path d="M 0.803 10.4 L 20.076 10.4 L 20.076 20 L 0.803 20 Z" fill="rgb(40,36,35)"></path><path d="M 4.015 9.6 L 16.864 9.6 L 16.864 11.2 L 4.015 11.2 Z" fill="rgb(255,255,255)"></path></g><path d="M 4.252 28.421 C 3.83 28.241 3.373 28.122 2.967 28.122 C 2.375 28.122 2.078 28.25 2.078 28.478 C 2.078 29.128 4.721 28.606 4.721 29.994 C 4.721 30.57 4.178 31.013 3.091 31.013 C 2.445 31.013 1.943 30.881 1.363 30.57 L 1.602 30.053 C 2.111 30.333 2.583 30.454 3.096 30.454 C 3.74 30.454 4.085 30.271 4.085 29.994 C 4.085 29.282 1.441 29.814 1.441 28.512 C 1.441 27.952 1.981 27.563 2.954 27.563 C 3.489 27.56 4.018 27.684 4.496 27.926 L 4.252 28.422 M 7.17 31.029 C 6.113 31.029 5.237 30.332 5.237 29.286 C 5.237 28.253 6.113 27.542 7.17 27.542 C 8.23 27.542 9.091 28.253 9.091 29.286 C 9.091 30.332 8.23 31.029 7.17 31.029 M 7.17 28.104 C 6.399 28.104 5.874 28.622 5.874 29.286 C 5.874 29.969 6.379 30.473 7.17 30.473 C 7.955 30.473 8.455 29.964 8.455 29.286 C 8.455 28.622 7.955 28.104 7.17 28.104 M 11.605 31.026 C 10.497 31.026 9.664 30.327 9.664 29.282 C 9.664 28.253 10.512 27.541 11.605 27.541 C 12.259 27.541 12.73 27.726 13.149 28.034 L 12.823 28.518 C 12.481 28.251 12.059 28.108 11.625 28.114 C 10.815 28.114 10.311 28.622 10.311 29.282 C 10.311 29.964 10.819 30.454 11.632 30.454 C 12.14 30.454 12.543 30.291 12.847 30.057 L 13.176 30.542 C 12.755 30.85 12.259 31.026 11.605 31.026" fill="hsl(0, 0%, 100%)"></path><path d="M 13.829 30.939 L 14.443 30.939 L 14.443 27.643 L 13.829 27.643 Z M 15.318 30.938 L 15.318 27.643 L 18.337 27.643 L 18.337 28.189 L 15.931 28.189 L 15.931 28.986 L 17.802 28.986 L 17.802 29.533 L 15.931 29.533 L 15.931 30.395 L 18.442 30.395 L 18.442 30.938 L 15.318 30.938 M 20.682 28.183 L 20.682 30.938 L 20.068 30.938 L 20.068 28.183 L 18.716 28.183 L 18.716 27.643 L 22.03 27.643 L 22.03 28.183 L 20.682 28.183 M 22.53 30.938 L 22.53 27.643 L 25.548 27.643 L 25.548 28.189 L 23.144 28.189 L 23.144 28.986 L 25.013 28.986 L 25.013 29.533 L 23.144 29.533 L 23.144 30.395 L 25.654 30.395 L 25.654 30.938 L 22.53 30.938 M 29.499 30.45 C 29.825 30.451 30.146 30.384 30.444 30.254 L 30.444 29.296 L 31.04 29.296 L 31.04 30.574 C 30.621 30.854 30.042 31.026 29.471 31.026 C 28.363 31.026 27.528 30.327 27.528 29.282 C 27.528 28.253 28.376 27.541 29.471 27.541 C 30.114 27.541 30.595 27.722 31.015 28.03 L 30.688 28.513 C 30.345 28.251 29.922 28.113 29.49 28.122 C 28.681 28.104 28.178 28.622 28.178 29.282 C 28.178 29.964 28.686 30.45 29.499 30.45 M 31.871 30.938 L 31.871 27.643 L 34.892 27.643 L 34.892 28.189 L 32.487 28.189 L 32.487 28.986 L 34.357 28.986 L 34.357 29.533 L 32.487 29.533 L 32.487 30.395 L 34.997 30.395 L 34.997 30.938 L 31.871 30.938 M 36.257 30.938 L 35.655 30.938 L 35.655 27.643 L 36.283 27.643 L 38.443 30.126 L 38.456 30.121 C 38.427 29.583 38.414 29.044 38.418 28.505 L 38.418 27.643 L 39.016 27.643 L 39.016 30.938 L 38.395 30.938 L 36.243 28.455 L 36.234 28.46 C 36.257 28.948 36.257 29.799 36.257 30.078 L 36.257 30.938 M 39.897 30.938 L 39.897 27.643 L 42.916 27.643 L 42.916 28.189 L 40.51 28.189 L 40.51 28.986 L 42.38 28.986 L 42.38 29.533 L 40.51 29.533 L 40.51 30.395 L 43.021 30.395 L 43.021 30.938 L 39.897 30.938" fill="hsl(0, 0%, 100%)"></path><path d="M 45.276 29.725 L 44.287 29.725 L 44.287 30.938 L 43.67 30.938 L 43.67 27.643 L 45.803 27.643 C 46.51 27.643 46.947 28.072 46.947 28.693 C 46.947 29.282 46.517 29.634 45.996 29.707 L 46.984 30.938 L 46.213 30.938 L 45.276 29.725 Z M 45.737 29.178 C 46.119 29.178 46.336 28.979 46.336 28.693 C 46.336 28.381 46.146 28.189 45.802 28.189 L 44.287 28.189 L 44.287 29.178 L 45.737 29.178 Z M 48.232 30.138 L 47.852 30.939 L 47.188 30.939 L 48.802 27.643 L 49.447 27.643 L 51.065 30.939 L 50.403 30.939 L 50.022 30.138 Z M 48.487 29.603 L 49.764 29.603 L 49.129 28.267 Z" fill="hsl(0, 0%, 100%)"></path><path d="M 51.507 30.938 L 51.507 27.643 L 52.121 27.643 L 52.121 30.395 L 54.335 30.395 L 54.335 30.938 L 51.507 30.938" fill="hsl(0, 0%, 100%)"></path><path d="M 54.817 27.545 L 76.027 27.545 L 76.027 31.014 L 54.817 31.014 Z" fill="transparent"></path><path d="M 54.817 30.938 L 54.817 27.643 L 57.834 27.643 L 57.834 28.189 L 55.432 28.189 L 55.432 28.986 L 57.299 28.986 L 57.299 29.533 L 55.432 29.533 L 55.432 30.395 L 57.941 30.395 L 57.941 30.938 L 54.817 30.938" fill="hsl(0, 0%, 100%)"></path><path d="M 61.926 30.457 C 62.252 30.458 62.575 30.391 62.874 30.26 L 62.874 29.302 L 63.47 29.302 L 63.47 30.582 C 63.051 30.864 62.469 31.035 61.899 31.035 C 60.788 31.035 59.951 30.334 59.951 29.286 C 59.951 28.257 60.801 27.545 61.899 27.545 C 62.54 27.545 63.023 27.726 63.446 28.033 L 63.117 28.516 C 62.811 28.283 62.426 28.124 61.916 28.124 C 61.107 28.108 60.601 28.626 60.601 29.286 C 60.601 29.97 61.111 30.457 61.926 30.457 Z M 65.911 29.732 L 64.919 29.732 L 64.919 30.948 L 64.303 30.948 L 64.303 27.644 L 66.44 27.644 C 67.147 27.644 67.588 28.076 67.588 28.698 C 67.588 29.286 67.157 29.638 66.632 29.713 L 67.623 30.948 L 66.851 30.948 L 65.912 29.732 Z M 66.373 29.182 C 66.758 29.182 66.975 28.983 66.975 28.698 C 66.975 28.386 66.784 28.19 66.44 28.19 L 64.919 28.19 L 64.919 29.182 Z M 70.045 31.041 C 68.988 31.041 68.11 30.339 68.11 29.29 C 68.11 28.257 68.988 27.545 70.045 27.545 C 71.107 27.545 71.972 28.257 71.972 29.29 C 71.972 30.338 71.107 31.041 70.045 31.041 Z M 70.045 28.107 C 69.277 28.107 68.747 28.626 68.747 29.291 C 68.747 29.973 69.253 30.478 70.045 30.478 C 70.835 30.478 71.332 29.97 71.332 29.29 C 71.332 28.626 70.834 28.107 70.045 28.107 Z M 76.028 29.603 C 76.028 30.446 75.4 31.043 74.353 31.043 C 73.308 31.043 72.681 30.432 72.681 29.603 L 72.681 27.643 L 73.297 27.643 L 73.297 29.539 C 73.297 30.084 73.631 30.475 74.353 30.475 C 75.071 30.475 75.414 30.09 75.414 29.539 L 75.414 27.643 L 76.027 27.643 L 76.027 29.603 Z M 78.948 27.645 C 79.672 27.645 80.131 28.115 80.131 28.767 C 80.131 29.444 79.672 29.839 78.948 29.839 L 77.5 29.839 L 77.5 30.948 L 76.888 30.948 L 76.888 27.644 L 78.947 27.644 Z M 78.984 29.29 C 79.298 29.29 79.502 29.071 79.502 28.775 C 79.502 28.451 79.298 28.19 78.948 28.19 L 77.5 28.19 L 77.5 29.29 L 78.983 29.29 Z" fill="hsl(0, 0%, 100%)"></path><g transform="translate(26.926 5.356)"><path d="M 4.585 6.237 L 1.755 6.237 L 1.755 9.7 L 0 9.7 L 0 0.288 L 6.088 0.288 C 8.109 0.288 9.359 1.518 9.359 3.288 C 9.359 4.97 8.135 5.973 6.643 6.185 L 9.461 9.7 L 7.262 9.7 Z M 5.898 4.669 C 6.997 4.669 7.616 4.103 7.616 3.288 C 7.616 2.398 7.073 1.844 6.088 1.844 L 1.755 1.844 L 1.755 4.668 L 5.899 4.668 Z M 16.464 9.965 C 13.444 9.965 10.945 7.97 10.945 4.982 C 10.945 2.034 13.445 0 16.464 0 C 19.494 0 21.958 2.034 21.958 4.982 C 21.958 7.97 19.494 9.964 16.464 9.964 Z M 16.464 1.606 C 14.266 1.606 12.763 3.086 12.763 4.982 C 12.763 6.927 14.203 8.37 16.464 8.37 C 18.711 8.37 20.139 6.914 20.139 4.982 C 20.139 3.086 18.711 1.606 16.464 1.606 Z M 31.501 2.51 C 30.289 1.995 28.988 1.657 27.825 1.657 C 26.133 1.657 25.287 2.021 25.287 2.673 C 25.287 4.53 32.839 3.038 32.839 7.003 C 32.839 8.646 31.287 9.914 28.178 9.914 C 26.335 9.914 24.894 9.538 23.24 8.646 L 23.922 7.166 C 25.375 7.97 26.726 8.319 28.193 8.319 C 30.035 8.319 31.02 7.793 31.02 7.003 C 31.02 4.97 23.468 6.487 23.468 2.774 C 23.468 1.167 25.01 0.063 27.786 0.063 C 29.454 0.063 30.857 0.427 32.195 1.091 Z M 43.115 4.82 C 43.947 5.245 44.428 6.036 44.428 6.939 C 44.428 8.497 43.29 9.701 41.119 9.701 L 34.841 9.701 L 34.841 0.288 L 41.081 0.288 C 42.823 0.288 44.086 1.342 44.086 2.936 C 44.086 3.752 43.733 4.342 43.115 4.82 Z M 41.182 4.166 C 41.978 4.166 42.343 3.613 42.343 3.025 C 42.343 2.372 41.926 1.844 41.08 1.844 L 36.583 1.844 L 36.583 4.166 L 41.182 4.166 Z M 42.61 6.939 C 42.61 6.149 42.192 5.723 41.294 5.723 L 36.584 5.723 L 36.584 8.144 L 41.081 8.144 C 42.129 8.144 42.61 7.692 42.61 6.939 Z M 48.249 7.416 L 47.163 9.701 L 45.268 9.701 L 49.878 0.288 L 51.722 0.288 L 56.344 9.701 L 54.45 9.701 L 53.364 7.416 L 48.248 7.416 Z M 48.982 5.886 L 52.632 5.886 L 50.813 2.071 Z M 59.357 9.701 L 57.64 9.701 L 57.64 0.288 L 59.432 0.288 L 65.608 7.38 L 65.647 7.366 C 65.563 5.828 65.525 4.288 65.532 2.748 L 65.532 0.288 L 67.251 0.288 L 67.251 9.701 L 65.469 9.701 L 59.319 2.61 L 59.293 2.622 C 59.358 4.016 59.358 6.45 59.358 7.241 L 59.358 9.701 Z" fill="hsl(0, 0%, 100%)"></path><path d="M 69.86 9.701 L 69.86 0.288 L 71.615 0.288 L 71.615 4.68 L 76.376 0.288 L 78.536 0.288 L 73.636 4.82 L 78.737 9.701 L 76.376 9.701 L 71.615 5.132 L 71.615 9.701 L 69.86 9.701" fill="hsl(0, 0%, 100%)"></path></g></g></svg>