<svg xmlns="http://www.w3.org/2000/svg" width="182" height="56" viewBox="0 0 182 56">
  <g fill="none" fill-rule="evenodd" transform="translate(1)">
    <polygon stroke="#FFF" points=".452 34.26 .452 .511 34.265 .511 34.265 34.26"/>
    <polygon fill="#E60028" fill-rule="nonzero" points=".903 33.808 33.814 33.808 33.814 .963 .903 .963"/>
    <polygon fill="#26262A" fill-rule="nonzero" points=".903 33.808 33.814 33.808 33.814 17.384 .903 17.384"/>
    <polygon fill="#FFFFFE" fill-rule="nonzero" points="6.644 18.385 28.06 18.385 28.06 16.386 6.644 16.386"/>
    <path fill="#FFF" fill-rule="nonzero" d="M52.5790964,19.5513472 L47.6929302,19.5513472 L47.6929302,25.5578003 L44.6612316,25.5578003 L44.6612316,9.23393531 L55.1734935,9.23393531 C58.662617,9.23393531 60.8212607,11.3681727 60.8212607,14.4370562 C60.8212607,17.3537701 58.7067342,19.0940657 56.1316867,19.4617448 L60.9961813,25.5578003 L57.2005597,25.5578003 L52.5790964,19.5513472 Z M54.8460979,16.8308317 C56.7423607,16.8308317 57.8112337,15.8506119 57.8112337,14.4370562 C57.8112337,12.8921866 56.8739381,11.9320502 55.1734935,11.9320502 L47.6929302,11.9320502 L47.6929302,16.8308317 L54.8460979,16.8308317 Z M73.0889201,26.0158542 C67.8761323,26.0158542 63.558845,22.5561186 63.558845,17.3746258 C63.558845,12.2611073 67.8761323,8.73416998 73.0889201,8.73416998 C78.3218315,8.73416998 82.575652,12.2611073 82.575652,17.3746258 C82.575652,22.5561186 78.3218315,26.0158542 73.0889201,26.0158542 Z M73.0889201,11.51957 C69.2932985,11.51957 66.6989014,14.0871432 66.6989014,17.3746258 C66.6989014,20.7486211 69.1849407,23.2520824 73.0889201,23.2520824 C76.96968,23.2520824 79.4348217,20.7262205 79.4348217,17.3746258 C79.4348217,14.0871432 76.96968,11.51957 73.0889201,11.51957 Z M99.053789,13.0868402 C96.9593863,12.194678 94.7125083,11.6076275 92.7055658,11.6076275 C89.7837727,11.6076275 88.3224893,12.2387068 88.3224893,13.3710962 C88.3224893,16.5906045 101.364133,14.0029479 101.364133,20.879935 C101.364133,23.729447 98.6830501,25.928569 93.3154654,25.928569 C90.1336138,25.928569 87.6460266,25.2750891 84.7900226,23.729447 L85.9664796,21.1634187 C88.4749643,22.5561186 90.8085286,23.1632524 93.3402328,23.1632524 C96.521311,23.1632524 98.2233036,22.249462 98.2233036,20.879935 C98.2233036,17.3537701 85.182433,19.9862279 85.182433,13.5448941 C85.182433,10.7587216 87.8433927,8.84385573 92.6397766,8.84385573 C95.5190004,8.84385573 97.940799,9.47493497 100.250369,10.6274077 L99.053789,13.0868402 Z M119.105414,17.0934596 C120.543477,17.8311349 121.372416,19.2037515 121.372416,20.7694769 C121.372416,23.4706814 119.408815,25.5585727 115.659633,25.5585727 L104.820749,25.5585727 L104.820749,9.23393531 L115.59307,9.23393531 C118.603871,9.23393531 120.784187,11.0630609 120.784187,13.8268327 C120.784187,15.2419333 120.173513,16.264637 119.105414,17.0934596 Z M115.767991,15.9602977 C117.144137,15.9602977 117.77416,15.0001612 117.77416,13.9797748 C117.77416,12.8481579 117.054354,11.933595 115.59307,11.933595 L107.828455,11.933595 L107.828455,15.9602977 L115.767991,15.9602977 Z M118.233906,20.7694769 C118.233906,19.3991775 117.512553,18.6591849 115.963035,18.6591849 L107.828455,18.6591849 L107.828455,22.8596855 L115.59307,22.8596855 C117.404195,22.8596855 118.233906,22.0748917 118.233906,20.7694769 Z M127.97141,21.5967545 L126.096045,25.5585727 L122.823637,25.5585727 L130.784071,9.23393531 L133.966696,9.23393531 L141.948028,25.5585727 L138.678716,25.5585727 L136.80335,21.5967545 L127.97141,21.5967545 Z M129.236101,18.9418961 L135.539433,18.9418961 L132.397829,12.3267643 L129.236101,18.9418961 Z M147.150754,25.5585727 L144.186392,25.5585727 L144.186392,9.23393531 L147.280783,9.23393531 L157.94552,21.5334149 L158.011309,21.5110143 C157.837162,18.4197302 157.813942,15.9154964 157.813942,13.5000928 L157.813942,9.23393531 L160.779852,9.23393531 L160.779852,25.5585727 L157.705585,25.5585727 L147.085739,13.2614104 L147.041622,13.2830386 C147.150754,15.6992147 147.150754,19.9197986 147.150754,21.2931876 L147.150754,25.5585727 Z"/>
    <polyline fill="#FFF" fill-rule="nonzero" points="165.285 25.559 165.285 9.234 168.316 9.234 168.316 16.851 176.537 9.234 180.268 9.234 171.807 17.094 180.614 25.559 176.537 25.559 168.316 17.635 168.316 25.559 165.285 25.559"/>
    <path fill="#FFF" fill-rule="nonzero" d="M5.56261443,51.5015685 C4.8807338,51.2103606 4.14390025,51.0172519 3.48910909,51.0172519 C2.53478581,51.0172519 2.05646319,51.2242644 2.05646319,51.5934883 C2.05646319,52.6463169 6.3187976,51.8005007 6.3187976,54.0490585 C6.3187976,54.9813874 5.44264678,55.696662 3.68879718,55.696662 C2.64856158,55.696662 1.8366515,55.48347 0.903225806,54.9813874 L1.28789626,54.1432956 C2.10909416,54.5959423 2.87069522,54.7921408 3.69731101,54.7921408 C4.73599863,54.7921408 5.29249372,54.4962983 5.29249372,54.0490585 C5.29249372,52.8950409 1.02938533,53.7555333 1.02938533,51.6491036 C1.02938533,50.7414926 1.90011825,50.1135031 3.4682115,50.1135031 C4.4062811,50.1135031 5.19884156,50.322833 5.95579872,50.6990087 L5.56261443,51.5015685 M10.2676682,55.7229247 C8.56412756,55.7229247 7.14928331,54.5943975 7.14928331,52.9012204 C7.14928331,51.228899 8.56412756,50.0771987 10.2676682,50.0771987 C11.9774006,50.0771987 13.3651554,51.228899 13.3651554,52.9012204 C13.3651554,54.5943975 11.9774006,55.7229247 10.2676682,55.7229247 M10.2676682,50.9886718 C9.02542251,50.9886718 8.17790914,51.827536 8.17790914,52.9012204 C8.17790914,54.007347 8.99214116,54.8222658 10.2676682,54.8222658 C11.5331333,54.8222658 12.3411735,53.9996227 12.3411735,52.9012204 C12.3411735,51.827536 11.5331333,50.9886718 10.2676682,50.9886718 M17.4208359,55.7190626 C15.6329309,55.7190626 14.2885193,54.5874456 14.2885193,52.8950409 C14.2885193,51.228899 15.6561505,50.0771987 17.4208359,50.0771987 C18.4750032,50.0771987 19.2327343,50.3776759 19.909197,50.8751239 L19.3836613,51.6583727 C18.892181,51.2814246 18.2714452,51.0033481 17.4510213,51.0033481 C16.1460829,51.0033481 15.3333988,51.827536 15.3333988,52.8950409 C15.3333988,53.9996227 16.1522747,54.7921408 17.463405,54.7921408 C18.282281,54.7921408 18.9324282,54.529513 19.4223606,54.149475 L19.9525402,54.9358137 C19.2729815,55.4332618 18.4750032,55.7190626 17.4208359,55.7190626"/>
    <polygon fill="#FFF" fill-rule="nonzero" points="21.006 55.577 21.996 55.577 21.996 50.243 21.006 50.243"/>
    <polyline fill="#FFF" fill-rule="nonzero" points="23.407 55.576 23.407 50.243 28.276 50.243 28.276 51.125 24.397 51.125 24.397 52.417 27.412 52.417 27.412 53.301 24.397 53.301 24.397 54.697 28.444 54.697 28.444 55.576 23.407 55.576"/>
    <polyline fill="#FFF" fill-rule="nonzero" points="32.058 51.116 32.058 55.576 31.067 55.576 31.067 51.116 28.888 51.116 28.888 50.243 34.232 50.243 34.232 51.116 32.058 51.116"/>
    <polyline fill="#FFF" fill-rule="nonzero" points="35.038 55.576 35.038 50.243 39.905 50.243 39.905 51.125 36.029 51.125 36.029 52.417 39.042 52.417 39.042 53.301 36.029 53.301 36.029 54.697 40.076 54.697 40.076 55.576 35.038 55.576"/>
    <path fill="#FFF" fill-rule="nonzero" d="M46.2765379,54.7867338 C46.8167794,54.7867338 47.3810143,54.664689 47.801288,54.469263 L47.801288,52.9174415 L48.7625772,52.9174415 L48.7625772,54.9860219 C48.0853404,55.4402136 47.1526888,55.7190626 46.2308729,55.7190626 C44.4445159,55.7190626 43.0985562,54.5874456 43.0985562,52.8950409 C43.0985562,51.228899 44.4654135,50.0771987 46.2308729,50.0771987 C47.2680125,50.0771987 48.0443193,50.3699515 48.720008,50.8697168 L48.1929244,51.649876 C47.702218,51.2744727 47.0807082,51.0172519 46.2618322,51.0172519 C44.9576678,50.9886718 44.1449837,51.827536 44.1449837,52.8950409 C44.1449837,53.9996227 44.9654077,54.7867338 46.2765379,54.7867338"/>
    <polyline fill="#FFF" fill-rule="nonzero" points="50.103 55.576 50.103 50.243 54.972 50.243 54.972 51.125 51.094 51.125 51.094 52.417 54.11 52.417 54.11 53.301 51.094 53.301 51.094 54.697 55.142 54.697 55.142 55.576 50.103 55.576"/>
    <path fill="#FFF" fill-rule="nonzero" d="M57.1742442,55.5761622 L56.2028932,55.5761622 L56.2028932,50.2424997 L57.2160394,50.2424997 L60.6989711,54.2614781 L60.7214166,54.2529813 C60.6641418,53.2395468 60.6594979,52.4230832 60.6594979,51.6367446 L60.6594979,50.2424997 L61.6238829,50.2424997 L61.6238829,55.5761622 L60.6223466,55.5761622 L57.1525727,51.5571838 L57.1363189,51.5641357 C57.1742442,52.3551089 57.1742442,53.7323602 57.1742442,54.1842346 L57.1742442,55.5761622"/>
    <polyline fill="#FFF" fill-rule="nonzero" points="63.044 55.576 63.044 50.243 67.913 50.243 67.913 51.125 64.033 51.125 64.033 52.417 67.048 52.417 67.048 53.301 64.033 53.301 64.033 54.697 68.082 54.697 68.082 55.576 63.044 55.576"/>
    <path fill="#FFF" fill-rule="nonzero" d="M71.718967,53.6118604 L70.1230102,53.6118604 L70.1230102,55.5761622 L69.1284398,55.5761622 L69.1284398,50.2424997 L72.5680283,50.2424997 C73.7073339,50.2424997 74.4116601,50.9369186 74.4116601,51.9418563 C74.4116601,52.8950409 73.7189437,53.4650978 72.8791702,53.5832803 L74.471257,55.5761622 L73.2274634,55.5761622 L71.718967,53.6118604 Z M72.4612184,52.7274226 C73.0780843,52.7274226 73.4294734,52.4053172 73.4294734,51.9418563 C73.4294734,51.4374564 73.1222014,51.1253927 72.5680283,51.1253927 L70.1230102,51.1253927 L70.1230102,52.7274226 L72.4612184,52.7274226 Z M76.4859395,54.2800165 L75.8729435,55.577707 L74.8025225,55.577707 L77.4046594,50.2424997 L78.4464431,50.2424997 L81.0555458,55.577707 L79.9866728,55.577707 L79.3713549,54.2800165 L76.4859395,54.2800165 Z M76.8969254,53.4148895 L78.957273,53.4148895 L77.9332911,51.2520721 L76.8969254,53.4148895 Z"/>
    <polyline fill="#FFF" fill-rule="nonzero" points="81.767 55.576 81.767 50.243 82.757 50.243 82.757 54.697 86.327 54.697 86.327 55.576 81.767 55.576"/>
    <polygon points="87.105 50.083 121.31 50.083 121.31 55.7 87.105 55.7"/>
    <polyline fill="#FFF" fill-rule="nonzero" points="87.105 55.576 87.105 50.243 91.971 50.243 91.971 51.125 88.096 51.125 88.096 52.417 91.108 52.417 91.108 53.301 88.096 53.301 88.096 54.697 92.143 54.697 92.143 55.576 87.105 55.576"/>
    <path fill="#FFF" fill-rule="nonzero" d="M98.5692743,54.7975479 C99.1095154,54.7975479 99.6737506,54.6778205 100.098669,54.4777599 L100.098669,52.9274831 L101.059183,52.9274831 L101.059183,54.9983809 C100.383495,55.4564347 99.444651,55.7329664 98.5259312,55.7329664 C96.7333821,55.7329664 95.3851008,54.5990321 95.3851008,52.9027653 C95.3851008,51.2358509 96.7558281,50.0833782 98.5259312,50.0833782 C99.5599748,50.0833782 100.340151,50.376131 101.020485,50.873579 L100.490305,51.655283 C99.9972761,51.2783348 99.3765405,51.0218865 98.5537948,51.0218865 C97.2488566,50.9940788 96.4323026,51.8337154 96.4323026,52.9027653 C96.4323026,54.0088919 97.2542742,54.7975479 98.5692743,54.7975479 Z M104.996444,53.623447 L103.396618,53.623447 L103.396618,55.5923833 L102.402821,55.5923833 L102.402821,50.244817 L105.849375,50.244817 C106.989455,50.244817 107.699973,50.9430981 107.699973,51.9495807 C107.699973,52.9027653 107.006483,53.4720497 106.158196,53.5925495 L107.756474,55.5923833 L106.511907,55.5923833 L104.996444,53.623447 Z M105.741017,52.7343745 C106.36098,52.7343745 106.711595,52.4114967 106.711595,51.9495807 C106.711595,51.4459532 106.403549,51.1284825 105.849375,51.1284825 L103.396618,51.1284825 L103.396618,52.7343745 L105.741017,52.7343745 Z M111.662775,55.7422356 C109.957687,55.7422356 108.542069,54.6059841 108.542069,52.9089447 C108.542069,51.2358509 109.957687,50.0833782 111.662775,50.0833782 C113.37483,50.0833782 114.770325,51.2358509 114.770325,52.9089447 C114.770325,54.6059841 113.37483,55.7422356 111.662775,55.7422356 Z M111.662775,50.9940788 C110.422852,50.9940788 109.568373,51.8321706 109.568373,52.9089447 C109.568373,54.0135265 110.384153,54.831535 111.662775,54.831535 C112.935206,54.831535 113.737829,54.0088919 113.737829,52.9089447 C113.737829,51.8321706 112.935206,50.9940788 111.662775,50.9940788 Z M121.309723,53.4148895 C121.309723,54.778237 120.29735,55.7460978 118.610837,55.7460978 C116.924325,55.7460978 115.9135,54.7573812 115.9135,53.4148895 L115.9135,50.2432722 L116.906523,50.2432722 L116.906523,53.3106108 C116.906523,54.1935039 117.44599,54.8276728 118.610837,54.8276728 C119.767944,54.8276728 120.321343,54.2020006 120.321343,53.3106108 L120.321343,50.2432722 L121.309723,50.2432722 L121.309723,53.4148895 Z M126.018646,50.244817 C127.187363,50.244817 127.928066,51.0064378 127.928066,52.0623562 C127.928066,53.1568963 127.187363,53.7964723 126.018646,53.7964723 L123.68663,53.7964723 L123.68663,55.5923833 L122.699025,55.5923833 L122.699025,50.244817 L126.018646,50.244817 Z M126.076695,52.9089447 C126.584429,52.9089447 126.912599,52.5543971 126.912599,52.0747151 C126.912599,51.5510043 126.584429,51.1277101 126.018646,51.1277101 L123.68663,51.1277101 L123.68663,52.9089447 L126.076695,52.9089447 Z"/>
  </g>
</svg>
