<svg xmlns="http://www.w3.org/2000/svg" width="132" height="40" viewBox="0 0 132 40">
  <g fill="none" fill-rule="evenodd">
    <g fill-rule="nonzero">
      <rect width="26" height="26" fill="#FAFAFA"/>
      <rect width="24" height="24" x="1" y="1" fill="#DF0032"/>
      <rect width="24" height="12" x="1" y="13" fill="#282423"/>
      <rect width="16" height="2" x="5" y="12" fill="#FFF"/>
    </g>
    <g transform="translate(1 34)">
      <path fill="#282423" fill-rule="nonzero" d="M4.29545516,1.52630772 C3.76890641,1.30143672 3.19992297,1.15231805 2.69429274,1.15231805 C1.95736356,1.15231805 1.58800246,1.31217325 1.58800246,1.59728823 C1.58800246,2.41028331 4.87938039,1.75714344 4.87938039,3.4934815 C4.87938039,4.21342654 4.20281605,4.76576216 2.84849203,4.76576216 C2.04522129,4.76576216 1.41826371,4.60113514 0.697471665,4.21342654 L0.994514489,3.56625144 C1.62864414,3.9157856 2.21675307,4.06729018 2.85506641,4.06729018 C3.6571418,4.06729018 4.08686774,3.83884038 4.08686774,3.4934815 C4.08686774,2.60234818 0.794892149,3.26682106 0.794892149,1.64023442 C0.794892149,0.93937653 1.46727278,0.454442546 2.6781556,0.454442546 C3.40253367,0.454442546 4.01454947,0.616087254 4.59907237,0.906570462 L4.29545516,1.52630772 M7.92870131,4.78604227 C6.61322592,4.78604227 5.52068209,3.91459264 5.52068209,2.60712 C5.52068209,1.31575212 6.61322592,0.42640823 7.92870131,0.42640823 C9.24895798,0.42640823 10.3205833,1.31575212 10.3205833,2.60712 C10.3205833,3.91459264 9.24895798,4.78604227 7.92870131,4.78604227 M7.92870131,1.13024851 C6.96943824,1.13024851 6.31498775,1.77802009 6.31498775,2.60712 C6.31498775,3.46127184 6.94373835,4.09055275 7.92870131,4.09055275 C8.90589447,4.09055275 9.52986371,3.45530713 9.52986371,2.60712 C9.52986371,1.77802009 8.90589447,1.13024851 7.92870131,1.13024851 M13.4523829,4.78305995 C12.0717613,4.78305995 11.0336056,3.90922441 11.0336056,2.60234818 C11.0336056,1.31575212 12.0896915,0.42640823 13.4523829,0.42640823 C14.2664117,0.42640823 14.8515323,0.658436966 15.3738973,1.0425667 L14.9680783,1.64739208 C14.5885568,1.3563124 14.1092241,1.14158152 13.4756921,1.14158152 C12.4680176,1.14158152 11.8404624,1.77802009 11.8404624,2.60234818 C11.8404624,3.45530713 12.472799,4.06729018 13.4852548,4.06729018 C14.1175915,4.06729018 14.6196357,3.86448879 14.9979618,3.57102319 L15.407367,4.17823449 C14.8826112,4.56236429 14.2664117,4.78305995 13.4523829,4.78305995"/>
      <polygon fill="#282423" points="16.221 4.674 16.986 4.674 16.986 .554 16.221 .554"/>
      <polyline fill="#282423" points="18.075 4.673 18.075 .554 21.835 .554 21.835 1.236 18.839 1.236 18.839 2.233 21.168 2.233 21.168 2.916 18.839 2.916 18.839 3.994 21.965 3.994 21.965 4.673 18.075 4.673"/>
      <polyline fill="#282423" points="24.755 1.229 24.755 4.673 23.99 4.673 23.99 1.229 22.307 1.229 22.307 .554 26.434 .554 26.434 1.229 24.755 1.229"/>
      <polyline fill="#282423" points="27.056 4.673 27.056 .554 30.815 .554 30.815 1.236 27.821 1.236 27.821 2.233 30.148 2.233 30.148 2.916 27.821 2.916 27.821 3.994 30.947 3.994 30.947 4.673 27.056 4.673"/>
      <path fill="#282423" d="M35.7347783,4.06311491 C36.1519532,4.06311491 36.5876558,3.96887184 36.9121915,3.81796373 L36.9121915,2.61964596 L37.6544997,2.61964596 L37.6544997,4.21700534 C37.131537,4.56773252 36.4113427,4.78305995 35.6995157,4.78305995 C34.3200895,4.78305995 33.2807384,3.90922441 33.2807384,2.60234818 C33.2807384,1.31575212 34.3362266,0.42640823 35.6995157,0.42640823 C36.5003957,0.42640823 37.0998604,0.652472188 37.6216278,1.03839135 L37.2146134,1.6408309 C36.8356896,1.35094417 36.3557592,1.15231805 35.7234226,1.15231805 C34.7163458,1.13024851 34.0887905,1.77802009 34.0887905,2.60234818 C34.0887905,3.45530713 34.7223225,4.06311491 35.7347783,4.06311491"/>
      <polyline fill="#282423" points="38.689 4.673 38.689 .554 42.45 .554 42.45 1.236 39.455 1.236 39.455 2.233 41.784 2.233 41.784 2.916 39.455 2.916 39.455 3.994 42.581 3.994 42.581 4.673 38.689 4.673"/>
      <path fill="#282423" d="M44.1499955,4.67271212 L43.3999176,4.67271212 L43.3999176,0.554053845 L44.1822698,0.554053845 L46.8717924,3.65751205 L46.8891248,3.65095079 C46.8448972,2.86837594 46.8413111,2.23790207 46.8413111,1.63069078 L46.8413111,0.554053845 L47.58601,0.554053845 L47.58601,4.67271212 L46.8126228,4.67271212 L44.1332607,1.56925391 L44.1207096,1.57462214 C44.1499955,2.18541231 44.1499955,3.2489268 44.1499955,3.59786455 L44.1499955,4.67271212"/>
      <polyline fill="#282423" points="48.683 4.673 48.683 .554 52.442 .554 52.442 1.236 49.447 1.236 49.447 2.233 51.775 2.233 51.775 2.916 49.447 2.916 49.447 3.994 52.573 3.994 52.573 4.673 48.683 4.673"/>
      <path fill="#282423" fill-rule="nonzero" d="M55.3814417,3.15587676 L54.1490427,3.15587676 L54.1490427,4.67271212 L53.3810346,4.67271212 L53.3810346,0.554053845 L56.0370875,0.554053845 C56.9168602,0.554053845 57.4607414,1.09028464 57.4607414,1.86629831 C57.4607414,2.60234818 56.9258253,3.04254654 56.2773515,3.13380722 L57.5067621,4.67271212 L56.5463037,4.67271212 L55.3814417,3.15587676 Z M55.9546088,2.4729132 C56.4309532,2.4729132 56.7022961,2.22418316 56.7022961,1.86629831 C56.7022961,1.47680028 56.4650204,1.23582452 56.0370875,1.23582452 L54.1490427,1.23582452 L54.1490427,2.4729132 L55.9546088,2.4729132 Z M59.0625016,3.67182745 L58.5891456,4.673905 L57.7625656,4.673905 L59.7719378,0.554053845 L60.5764039,0.554053845 L62.5911551,4.673905 L61.7657705,4.673905 L61.2906215,3.67182745 L59.0625016,3.67182745 Z M59.3798652,3.00377569 L60.9708672,3.00377569 L60.1801476,1.33364638 L59.3798652,3.00377569 Z"/>
      <polyline fill="#282423" points="63.141 4.673 63.141 .554 63.905 .554 63.905 3.994 66.662 3.994 66.662 4.673 63.141 4.673"/>
      <polygon points="67.263 .431 93.675 .431 93.675 4.768 67.263 4.768"/>
      <polyline fill="#282423" points="67.263 4.673 67.263 .554 71.02 .554 71.02 1.236 68.028 1.236 68.028 2.233 70.354 2.233 70.354 2.916 68.028 2.916 68.028 3.994 71.153 3.994 71.153 4.673 67.263 4.673"/>
      <path fill="#282423" fill-rule="nonzero" d="M76.1152697,4.07146553 C76.5324443,4.07146553 76.9681472,3.97901196 77.2962692,3.82452499 L77.2962692,2.6274001 L78.0379794,2.6274001 L78.0379794,4.22654898 C77.516212,4.58025848 76.7912363,4.79379648 76.0818002,4.79379648 C74.6975923,4.79379648 73.6564485,3.91817151 73.6564485,2.60831296 C73.6564485,1.32112042 74.7149252,0.431180052 76.0818002,0.431180052 C76.8802895,0.431180052 77.4827425,0.65724401 78.0080963,1.04137374 L77.5986908,1.64500617 C77.2179738,1.35392649 76.7386413,1.15589691 76.1033165,1.15589691 C75.0956422,1.13442378 74.4650985,1.78279184 74.4650985,2.60831296 C74.4650985,3.4624648 75.0998256,4.07146553 76.1152697,4.07146553 Z M81.0783351,3.16482392 L79.8429482,3.16482392 L79.8429482,4.68523808 L79.0755376,4.68523808 L79.0755376,0.555843278 L81.7369695,0.555843278 C82.6173398,0.555843278 83.1660024,1.09505646 83.1660024,1.87226309 C83.1660024,2.60831296 82.6304886,3.04791484 81.9754406,3.14096488 L83.2096328,4.68523808 L82.2485768,4.68523808 L81.0783351,3.16482392 Z M81.6532952,2.47828143 C82.1320307,2.47828143 82.4027759,2.22895498 82.4027759,1.87226309 C82.4027759,1.48336153 82.1649025,1.23821043 81.7369695,1.23821043 L79.8429482,1.23821043 L79.8429482,2.47828143 L81.6532952,2.47828143 Z M86.2260813,4.80095414 C84.909411,4.80095414 83.8162692,3.92353981 83.8162692,2.61308471 C83.8162692,1.32112042 84.909411,0.431180052 86.2260813,0.431180052 C87.5481311,0.431180052 88.6257332,1.32112042 88.6257332,2.61308471 C88.6257332,3.92353981 87.5481311,4.80095414 86.2260813,4.80095414 Z M86.2260813,1.13442378 C85.2686117,1.13442378 84.6087819,1.78159888 84.6087819,2.61308471 C84.6087819,3.46604366 85.2387278,4.09771041 86.2260813,4.09771041 C87.2086535,4.09771041 87.8284394,3.4624648 87.8284394,2.61308471 C87.8284394,1.78159888 87.2086535,1.13442378 86.2260813,1.13442378 Z M93.6754616,3.00377569 C93.6754616,4.05655365 92.8937067,4.80393653 91.5913799,4.80393653 C90.2890539,4.80393653 89.5084945,4.04044882 89.5084945,3.00377569 L89.5084945,0.554650323 L90.2753074,0.554650323 L90.2753074,2.92325161 C90.2753074,3.60502228 90.6918842,4.09472802 91.5913799,4.09472802 C92.484899,4.09472802 92.9122344,3.61158347 92.9122344,2.92325161 L92.9122344,0.554650323 L93.6754616,0.554650323 L93.6754616,3.00377569 Z M97.3116959,0.555843278 C98.2141803,0.555843278 98.7861517,1.14396743 98.7861517,1.95934842 C98.7861517,2.80455316 98.2141803,3.29843425 97.3116959,3.29843425 L95.5109112,3.29843425 L95.5109112,4.68523808 L94.7482818,4.68523808 L94.7482818,0.555843278 L97.3116959,0.555843278 Z M97.356521,2.61308471 C97.7485935,2.61308471 98.0020066,2.33930281 98.0020066,1.968892 C98.0020066,1.56448209 97.7485935,1.23761395 97.3116959,1.23761395 L95.5109112,1.23761395 L95.5109112,2.61308471 L97.356521,2.61308471 Z"/>
    </g>
    <g fill="#282423" transform="translate(33 6)">
      <path fill-rule="nonzero" d="M6.24138954,8.49106105 L2.7174553,8.49106105 L2.7174553,12.8200362 L0.530974956,12.8200362 L0.530974956,1.05508851 L8.11248527,1.05508851 C10.6288634,1.05508851 12.185691,2.59327762 12.185691,4.80508558 C12.185691,6.90722169 10.660681,8.16148882 8.80354035,8.42648271 L12.3118449,12.8200362 L9.57441838,12.8200362 L6.24138954,8.49106105 Z M7.87636548,6.53032916 C9.2439623,6.53032916 10.0148404,5.82386447 10.0148404,4.80508558 C10.0148404,3.69166601 9.33885678,2.99967579 8.11248527,2.99967579 L2.7174553,2.99967579 L2.7174553,6.53032916 L7.87636548,6.53032916 Z M21.0332053,13.1501652 C17.2737095,13.1501652 14.1600543,10.6566621 14.1600543,6.92225286 C14.1600543,3.23683411 17.2737095,0.694897285 21.0332053,0.694897285 C24.8072144,0.694897285 27.8750969,3.23683411 27.8750969,6.92225286 C27.8750969,10.6566621 24.8072144,13.1501652 21.0332053,13.1501652 Z M21.0332053,2.70239276 C18.2957788,2.70239276 16.424683,4.55289602 16.424683,6.92225286 C16.424683,9.35396119 18.2176304,11.1582576 21.0332053,11.1582576 C23.8320341,11.1582576 25.60991,9.33781659 25.60991,6.92225286 C25.60991,4.55289602 23.8320341,2.70239276 21.0332053,2.70239276 Z M39.7592345,3.83195687 C38.2487379,3.18895709 36.6282751,2.76585767 35.1808554,2.76585767 C33.0736395,2.76585767 32.0197526,3.22068958 32.0197526,4.03682606 C32.0197526,6.35719245 41.4254694,4.49221467 41.4254694,9.44860181 C41.4254694,11.5023042 39.4918551,13.087257 35.6207188,13.087257 C33.3259472,13.087257 31.5318834,12.6162805 29.4721151,11.5023042 L30.3205834,9.65291435 C32.1297186,10.6566621 33.8127,11.0942359 35.6385812,11.0942359 C37.9327951,11.0942359 39.1602831,10.4356483 39.1602831,9.44860181 C39.1602831,6.90722169 29.7551239,8.8044886 29.7551239,4.1620858 C29.7551239,2.1540336 31.6742251,0.773950075 35.1334078,0.773950075 C37.2099223,0.773950075 38.9565389,1.22878196 40.6222156,2.05939292 L39.7592345,3.83195687 Z M54.2205941,6.71961052 C55.2577349,7.25126837 55.8555704,8.24054162 55.8555704,9.36899236 C55.8555704,11.3158064 54.4394093,12.8205929 51.7354754,12.8205929 L43.9184031,12.8205929 L43.9184031,1.05508851 L51.6874696,1.05508851 C53.8588786,1.05508851 55.4313362,2.37337726 55.4313362,4.36528485 C55.4313362,5.38517716 54.9909138,6.12226091 54.2205941,6.71961052 Z M51.8136234,5.90291726 C52.8061085,5.90291726 53.2604855,5.21092697 53.2604855,4.47551336 C53.2604855,3.65993359 52.7413568,3.00078921 51.6874696,3.00078921 L46.0875797,3.00078921 L46.0875797,5.90291726 L51.8136234,5.90291726 Z M53.5920575,9.36899236 C53.5920575,8.38138919 53.071813,7.8480612 51.9542906,7.8480612 L46.0875797,7.8480612 L46.0875797,10.875449 L51.6874696,10.875449 C52.9936644,10.875449 53.5920575,10.3098319 53.5920575,9.36899236 Z M60.6148069,9.96522848 L59.2622817,12.8205929 L56.9022002,12.8205929 L62.6433163,1.05508851 L64.938646,1.05508851 L70.6948331,12.8205929 L68.3369848,12.8205929 L66.9844589,9.96522848 L60.6148069,9.96522848 Z M61.5269104,8.05181703 L66.0729137,8.05181703 L63.8071691,3.28415449 L61.5269104,8.05181703 Z M74.4470724,12.8205929 L72.3091557,12.8205929 L72.3091557,1.05508851 L74.5408503,1.05508851 L82.2323265,9.91957831 L82.279774,9.90343371 C82.1541785,7.67548121 82.137432,5.87062806 82.137432,4.1297966 L82.137432,1.05508851 L84.2764652,1.05508851 L84.2764652,12.8205929 L82.059284,12.8205929 L74.4001831,3.95777326 L74.3683655,3.97336115 C74.4470724,5.71474932 74.4470724,8.75661158 74.4470724,9.74644154 L74.4470724,12.8205929 Z"/>
      <polyline points="87.526 12.821 87.526 1.055 89.712 1.055 89.712 6.545 95.641 1.055 98.331 1.055 92.229 6.72 98.581 12.821 95.641 12.821 89.712 7.11 89.712 12.821 87.526 12.821"/>
    </g>
  </g>
</svg>
